M48
;GenerationSoftware,Autodesk,EAGLE,9.6.2*%
;CreationDate,2023-05-01T19:46:17Z*%
FMAT,2
ICI,OFF
METRIC,TZ,000.000
T3C0.305
T2C0.700
T1C3.302
%
G90
M71
T1
X60706Y55626
X3810Y16510
X11938Y16510
X20066Y16510
X28194Y16510
X36322Y16510
X44450Y16510
X52578Y16510
X60706Y16510
X3810Y36068
X11938Y36068
X20066Y36068
X28194Y36068
X36322Y36068
X44450Y36068
X52578Y36068
X60706Y36068
X3810Y55626
X11938Y55626
X20066Y55626
X28194Y55626
X36322Y55626
X44450Y55626
X52578Y55626
X60706Y114300
X3810Y75184
X11938Y75184
X20066Y75184
X28194Y75184
X36322Y75184
X44450Y75184
X52578Y75184
X60706Y75184
X3810Y94742
X11938Y94742
X20066Y94742
X28194Y94742
X36322Y94742
X44450Y94742
X52578Y94742
X60706Y94742
X3810Y114300
X11938Y114300
X20066Y114300
X28194Y114300
X36322Y114300
X44450Y114300
X52578Y114300
X60706Y153416
X3810Y133858
X11938Y133858
X20066Y133858
X28194Y133858
X36322Y133858
X44450Y133858
X52578Y133858
X60706Y133858
X3810Y153416
X11938Y153416
X20066Y153416
X28194Y153416
X36322Y153416
X44450Y153416
X52578Y153416
T2
X58166Y150876
X6350Y13970
X1270Y13970
X14478Y13970
X9398Y13970
X22606Y13970
X17526Y13970
X30734Y13970
X25654Y13970
X38862Y13970
X33782Y13970
X46990Y13970
X41910Y13970
X55118Y13970
X50038Y13970
X63246Y13970
X58166Y13970
X6350Y33528
X1270Y33528
X14478Y33528
X9398Y33528
X22606Y33528
X17526Y33528
X30734Y33528
X25654Y33528
X38862Y33528
X33782Y33528
X46990Y33528
X41910Y33528
X55118Y33528
X50038Y33528
X63246Y33528
X58166Y33528
X6350Y53086
X1270Y53086
X14478Y53086
X9398Y53086
X22606Y53086
X17526Y53086
X30734Y53086
X25654Y53086
X38862Y53086
X33782Y53086
X46990Y53086
X41910Y53086
X55118Y53086
X50038Y53086
X63246Y53086
X58166Y53086
X6350Y72644
X1270Y72644
X14478Y72644
X9398Y72644
X22606Y72644
X17526Y72644
X30734Y72644
X25654Y72644
X38862Y72644
X33782Y72644
X46990Y72644
X41910Y72644
X55118Y72644
X50038Y72644
X63246Y72644
X58166Y72644
X6350Y92202
X1270Y92202
X14478Y92202
X9398Y92202
X22606Y92202
X17526Y92202
X30734Y92202
X25654Y92202
X38862Y92202
X33782Y92202
X46990Y92202
X41910Y92202
X55118Y92202
X50038Y92202
X63246Y92202
X58166Y92202
X6350Y111760
X1270Y111760
X14478Y111760
X9398Y111760
X22606Y111760
X17526Y111760
X30734Y111760
X25654Y111760
X38862Y111760
X33782Y111760
X46990Y111760
X41910Y111760
X55118Y111760
X50038Y111760
X63246Y111760
X58166Y111760
X6350Y131318
X1270Y131318
X14478Y131318
X9398Y131318
X22606Y131318
X17526Y131318
X30734Y131318
X25654Y131318
X38862Y131318
X33782Y131318
X46990Y131318
X41910Y131318
X55118Y131318
X50038Y131318
X63246Y131318
X58166Y131318
X6350Y150876
X1270Y150876
X14478Y150876
X9398Y150876
X22606Y150876
X17526Y150876
X30734Y150876
X25654Y150876
X38862Y150876
X33782Y150876
X46990Y150876
X41910Y150876
X55118Y150876
X50038Y150876
X63246Y150876
T3
X5080Y32385
X6121Y27305
X6223Y25146
X5842Y31369
X5842Y29337
X3048Y28113
X11430Y23368
X11938Y25908
X9525Y24511
X10668Y31877
X10287Y27940
X11938Y21971
X12954Y22352
X13970Y22352
X10414Y22225
X13716Y28321
X15113Y28321
X14732Y23825
X9779Y32512
X12954Y28372
X13462Y23368
X12446Y23368
X13208Y32385
X14249Y27305
X14351Y25146
X13970Y31369
X13970Y29337
X11176Y28113
X19558Y23368
X20066Y25908
X17653Y24511
X18796Y31877
X18415Y27940
X20066Y21971
X21082Y22352
X22098Y22352
X18542Y22225
X21844Y28321
X23241Y28321
X22860Y23825
X17907Y32512
X21082Y28372
X21590Y23368
X20574Y23368
X21336Y32385
X22377Y27305
X22479Y25146
X22098Y31369
X22098Y29337
X19304Y28113
X27686Y23368
X28194Y25908
X25781Y24511
X26924Y31877
X26543Y27940
X28194Y21971
X29210Y22352
X30226Y22352
X26670Y22225
X29972Y28321
X31369Y28321
X30988Y23825
X26035Y32512
X29210Y28372
X29718Y23368
X28702Y23368
X29464Y32385
X30505Y27305
X30607Y25146
X30226Y31369
X30226Y29337
X27432Y28113
X35814Y23368
X36322Y25908
X33909Y24511
X35052Y31877
X34671Y27940
X36322Y21971
X37338Y22352
X38354Y22352
X34798Y22225
X38100Y28321
X39497Y28321
X39116Y23825
X34163Y32512
X37338Y28372
X37846Y23368
X36830Y23368
X37592Y32385
X38633Y27305
X38735Y25146
X38354Y31369
X38354Y29337
X35560Y28113
X43942Y23368
X44450Y25908
X42037Y24511
X43180Y31877
X42799Y27940
X44450Y21971
X45466Y22352
X46482Y22352
X42926Y22225
X46228Y28321
X47625Y28321
X47244Y23825
X42291Y32512
X45466Y28372
X45974Y23368
X44958Y23368
X45720Y32385
X46761Y27305
X46863Y25146
X46482Y31369
X46482Y29337
X43688Y28113
X52070Y23368
X52578Y25908
X50165Y24511
X51308Y31877
X50927Y27940
X52578Y21971
X53594Y22352
X54610Y22352
X51054Y22225
X54356Y28321
X55753Y28321
X55372Y23825
X50419Y32512
X53594Y28372
X54102Y23368
X53086Y23368
X53848Y32385
X54889Y27305
X54991Y25146
X54610Y31369
X54610Y29337
X51816Y28113
X60198Y23368
X60706Y25908
X58293Y24511
X59436Y31877
X59055Y27940
X60706Y21971
X61722Y22352
X62738Y22352
X59182Y22225
X62484Y28321
X63881Y28321
X63500Y23825
X58547Y32512
X61722Y28372
X62230Y23368
X61214Y23368
X61976Y32385
X63017Y27305
X63119Y25146
X62738Y31369
X62738Y29337
X59944Y28113
X3302Y42926
X3810Y45466
X1397Y44069
X2540Y51435
X2159Y47498
X3810Y41529
X4826Y41910
X5842Y41910
X2286Y41783
X5588Y47879
X6985Y47879
X6604Y43383
X1651Y52070
X4826Y47930
X5334Y42926
X4318Y42926
X5080Y51943
X6121Y46863
X6223Y44704
X5842Y50927
X5842Y48895
X3048Y47671
X11430Y42926
X11938Y45466
X9525Y44069
X10668Y51435
X10287Y47498
X11938Y41529
X12954Y41910
X13970Y41910
X10414Y41783
X13716Y47879
X15113Y47879
X14732Y43383
X9779Y52070
X12954Y47930
X13462Y42926
X12446Y42926
X13208Y51943
X14249Y46863
X14351Y44704
X13970Y50927
X13970Y48895
X11176Y47671
X19558Y42926
X20066Y45466
X17653Y44069
X18796Y51435
X18415Y47498
X20066Y41529
X21082Y41910
X22098Y41910
X18542Y41783
X21844Y47879
X23241Y47879
X22860Y43383
X17907Y52070
X21082Y47930
X21590Y42926
X20574Y42926
X21336Y51943
X22377Y46863
X22479Y44704
X22098Y50927
X22098Y48895
X19304Y47671
X27686Y42926
X28194Y45466
X25781Y44069
X26924Y51435
X26543Y47498
X28194Y41529
X29210Y41910
X30226Y41910
X26670Y41783
X29972Y47879
X31369Y47879
X30988Y43383
X26035Y52070
X29210Y47930
X29718Y42926
X28702Y42926
X29464Y51943
X30505Y46863
X30607Y44704
X30226Y50927
X30226Y48895
X27432Y47671
X35814Y42926
X36322Y45466
X33909Y44069
X35052Y51435
X34671Y47498
X36322Y41529
X37338Y41910
X38354Y41910
X34798Y41783
X38100Y47879
X39497Y47879
X39116Y43383
X34163Y52070
X37338Y47930
X37846Y42926
X36830Y42926
X37592Y51943
X38633Y46863
X38735Y44704
X38354Y50927
X38354Y48895
X35560Y47671
X43942Y42926
X44450Y45466
X42037Y44069
X43180Y51435
X42799Y47498
X44450Y41529
X45466Y41910
X46482Y41910
X42926Y41783
X46228Y47879
X47625Y47879
X47244Y43383
X42291Y52070
X45466Y47930
X45974Y42926
X44958Y42926
X45720Y51943
X46761Y46863
X46863Y44704
X46482Y50927
X46482Y48895
X43688Y47671
X52070Y42926
X52578Y45466
X50165Y44069
X51308Y51435
X50927Y47498
X52578Y41529
X53594Y41910
X54610Y41910
X51054Y41783
X54356Y47879
X55753Y47879
X55372Y43383
X50419Y52070
X53594Y47930
X54102Y42926
X53086Y42926
X53848Y51943
X54889Y46863
X54991Y44704
X54610Y50927
X54610Y48895
X51816Y47671
X60198Y42926
X60706Y45466
X58293Y44069
X59436Y51435
X59055Y47498
X60706Y41529
X61722Y41910
X62738Y41910
X59182Y41783
X62484Y47879
X63881Y47879
X63500Y43383
X58547Y52070
X61722Y47930
X62230Y42926
X61214Y42926
X61976Y51943
X63017Y46863
X63119Y44704
X62738Y50927
X62738Y48895
X59944Y47671
X3302Y62484
X3810Y65024
X1397Y63627
X2540Y70993
X2159Y67056
X3810Y61087
X4826Y61468
X5842Y61468
X2286Y61341
X5588Y67437
X6985Y67437
X6604Y62941
X1651Y71628
X4826Y67488
X5334Y62484
X4318Y62484
X5080Y71501
X6121Y66421
X6223Y64262
X5842Y70485
X5842Y68453
X3048Y67229
X11430Y62484
X11938Y65024
X9525Y63627
X10668Y70993
X10287Y67056
X11938Y61087
X12954Y61468
X13970Y61468
X10414Y61341
X13716Y67437
X15113Y67437
X14732Y62941
X9779Y71628
X12954Y67488
X13462Y62484
X12446Y62484
X13208Y71501
X14249Y66421
X14351Y64262
X13970Y70485
X13970Y68453
X11176Y67229
X19558Y62484
X20066Y65024
X17653Y63627
X18796Y70993
X18415Y67056
X20066Y61087
X21082Y61468
X22098Y61468
X18542Y61341
X21844Y67437
X23241Y67437
X22860Y62941
X17907Y71628
X21082Y67488
X21590Y62484
X20574Y62484
X21336Y71501
X22377Y66421
X22479Y64262
X22098Y70485
X22098Y68453
X19304Y67229
X27686Y62484
X28194Y65024
X25781Y63627
X26924Y70993
X26543Y67056
X28194Y61087
X29210Y61468
X30226Y61468
X26670Y61341
X29972Y67437
X31369Y67437
X30988Y62941
X26035Y71628
X29210Y67488
X29718Y62484
X28702Y62484
X29464Y71501
X30505Y66421
X30607Y64262
X30226Y70485
X30226Y68453
X27432Y67229
X35814Y62484
X36322Y65024
X33909Y63627
X35052Y70993
X34671Y67056
X36322Y61087
X37338Y61468
X38354Y61468
X34798Y61341
X38100Y67437
X39497Y67437
X39116Y62941
X34163Y71628
X37338Y67488
X37846Y62484
X36830Y62484
X37592Y71501
X38633Y66421
X38735Y64262
X38354Y70485
X38354Y68453
X35560Y67229
X43942Y62484
X44450Y65024
X42037Y63627
X43180Y70993
X42799Y67056
X44450Y61087
X45466Y61468
X46482Y61468
X42926Y61341
X46228Y67437
X47625Y67437
X47244Y62941
X42291Y71628
X45466Y67488
X45974Y62484
X44958Y62484
X45720Y71501
X46761Y66421
X46863Y64262
X46482Y70485
X46482Y68453
X43688Y67229
X52070Y62484
X52578Y65024
X50165Y63627
X51308Y70993
X50927Y67056
X52578Y61087
X53594Y61468
X54610Y61468
X51054Y61341
X54356Y67437
X55753Y67437
X55372Y62941
X50419Y71628
X53594Y67488
X54102Y62484
X53086Y62484
X53848Y71501
X54889Y66421
X54991Y64262
X54610Y70485
X54610Y68453
X51816Y67229
X60198Y62484
X60706Y65024
X58293Y63627
X59436Y70993
X59055Y67056
X60706Y61087
X61722Y61468
X62738Y61468
X59182Y61341
X62484Y67437
X63881Y67437
X63500Y62941
X58547Y71628
X61722Y67488
X62230Y62484
X61214Y62484
X61976Y71501
X63017Y66421
X63119Y64262
X62738Y70485
X62738Y68453
X59944Y67229
X3302Y82042
X3810Y84582
X1397Y83185
X2540Y90551
X2159Y86614
X3810Y80645
X4826Y81026
X5842Y81026
X2286Y80899
X5588Y86995
X6985Y86995
X6604Y82499
X1651Y91186
X4826Y87046
X5334Y82042
X4318Y82042
X5080Y91059
X6121Y85979
X6223Y83820
X5842Y90043
X5842Y88011
X3048Y86787
X11430Y82042
X11938Y84582
X9525Y83185
X10668Y90551
X10287Y86614
X11938Y80645
X12954Y81026
X13970Y81026
X10414Y80899
X13716Y86995
X15113Y86995
X14732Y82499
X9779Y91186
X12954Y87046
X13462Y82042
X12446Y82042
X13208Y91059
X14249Y85979
X14351Y83820
X13970Y90043
X13970Y88011
X11176Y86787
X19558Y82042
X20066Y84582
X17653Y83185
X18796Y90551
X18415Y86614
X20066Y80645
X21082Y81026
X22098Y81026
X18542Y80899
X21844Y86995
X23241Y86995
X22860Y82499
X17907Y91186
X21082Y87046
X21590Y82042
X20574Y82042
X21336Y91059
X22377Y85979
X22479Y83820
X22098Y90043
X22098Y88011
X19304Y86787
X27686Y82042
X28194Y84582
X25781Y83185
X26924Y90551
X26543Y86614
X28194Y80645
X29210Y81026
X30226Y81026
X26670Y80899
X29972Y86995
X31369Y86995
X30988Y82499
X26035Y91186
X29210Y87046
X29718Y82042
X28702Y82042
X29464Y91059
X30505Y85979
X30607Y83820
X30226Y90043
X30226Y88011
X27432Y86787
X35814Y82042
X36322Y84582
X33909Y83185
X35052Y90551
X34671Y86614
X36322Y80645
X37338Y81026
X38354Y81026
X34798Y80899
X38100Y86995
X39497Y86995
X39116Y82499
X34163Y91186
X37338Y87046
X37846Y82042
X36830Y82042
X37592Y91059
X38633Y85979
X38735Y83820
X38354Y90043
X38354Y88011
X35560Y86787
X43942Y82042
X44450Y84582
X42037Y83185
X43180Y90551
X42799Y86614
X44450Y80645
X45466Y81026
X46482Y81026
X42926Y80899
X46228Y86995
X47625Y86995
X47244Y82499
X42291Y91186
X45466Y87046
X45974Y82042
X44958Y82042
X45720Y91059
X46761Y85979
X46863Y83820
X46482Y90043
X46482Y88011
X43688Y86787
X52070Y82042
X52578Y84582
X50165Y83185
X51308Y90551
X50927Y86614
X52578Y80645
X53594Y81026
X54610Y81026
X51054Y80899
X54356Y86995
X55753Y86995
X55372Y82499
X50419Y91186
X53594Y87046
X54102Y82042
X53086Y82042
X53848Y91059
X54889Y85979
X54991Y83820
X54610Y90043
X54610Y88011
X51816Y86787
X60198Y82042
X60706Y84582
X58293Y83185
X59436Y90551
X59055Y86614
X60706Y80645
X61722Y81026
X62738Y81026
X59182Y80899
X62484Y86995
X63881Y86995
X63500Y82499
X58547Y91186
X61722Y87046
X62230Y82042
X61214Y82042
X61976Y91059
X63017Y85979
X63119Y83820
X62738Y90043
X62738Y88011
X59944Y86787
X3302Y101600
X3810Y104140
X1397Y102743
X2540Y110109
X2159Y106172
X3810Y100203
X4826Y100584
X5842Y100584
X2286Y100457
X5588Y106553
X6985Y106553
X6604Y102057
X1651Y110744
X4826Y106604
X5334Y101600
X4318Y101600
X5080Y110617
X6121Y105537
X6223Y103378
X5842Y109601
X5842Y107569
X3048Y106345
X11430Y101600
X11938Y104140
X9525Y102743
X10668Y110109
X10287Y106172
X11938Y100203
X12954Y100584
X13970Y100584
X10414Y100457
X13716Y106553
X15113Y106553
X14732Y102057
X9779Y110744
X12954Y106604
X13462Y101600
X12446Y101600
X13208Y110617
X14249Y105537
X14351Y103378
X13970Y109601
X13970Y107569
X11176Y106345
X19558Y101600
X20066Y104140
X17653Y102743
X18796Y110109
X18415Y106172
X20066Y100203
X21082Y100584
X22098Y100584
X18542Y100457
X21844Y106553
X23241Y106553
X22860Y102057
X17907Y110744
X21082Y106604
X21590Y101600
X20574Y101600
X21336Y110617
X22377Y105537
X22479Y103378
X22098Y109601
X22098Y107569
X19304Y106345
X27686Y101600
X28194Y104140
X25781Y102743
X26924Y110109
X26543Y106172
X28194Y100203
X29210Y100584
X30226Y100584
X26670Y100457
X29972Y106553
X31369Y106553
X30988Y102057
X26035Y110744
X29210Y106604
X29718Y101600
X28702Y101600
X29464Y110617
X30505Y105537
X30607Y103378
X30226Y109601
X30226Y107569
X27432Y106345
X35814Y101600
X36322Y104140
X33909Y102743
X35052Y110109
X34671Y106172
X36322Y100203
X37338Y100584
X38354Y100584
X34798Y100457
X38100Y106553
X39497Y106553
X39116Y102057
X34163Y110744
X37338Y106604
X37846Y101600
X36830Y101600
X37592Y110617
X38633Y105537
X38735Y103378
X38354Y109601
X38354Y107569
X35560Y106345
X43942Y101600
X44450Y104140
X42037Y102743
X43180Y110109
X42799Y106172
X44450Y100203
X45466Y100584
X46482Y100584
X42926Y100457
X46228Y106553
X47625Y106553
X47244Y102057
X42291Y110744
X45466Y106604
X45974Y101600
X44958Y101600
X45720Y110617
X46761Y105537
X46863Y103378
X46482Y109601
X46482Y107569
X43688Y106345
X52070Y101600
X52578Y104140
X50165Y102743
X51308Y110109
X50927Y106172
X52578Y100203
X53594Y100584
X54610Y100584
X51054Y100457
X54356Y106553
X55753Y106553
X55372Y102057
X50419Y110744
X53594Y106604
X54102Y101600
X53086Y101600
X53848Y110617
X54889Y105537
X54991Y103378
X54610Y109601
X54610Y107569
X51816Y106345
X60198Y101600
X60706Y104140
X58293Y102743
X59436Y110109
X59055Y106172
X60706Y100203
X61722Y100584
X62738Y100584
X59182Y100457
X62484Y106553
X63881Y106553
X63500Y102057
X58547Y110744
X61722Y106604
X62230Y101600
X61214Y101600
X61976Y110617
X63017Y105537
X63119Y103378
X62738Y109601
X62738Y107569
X59944Y106345
X3302Y121158
X3810Y123698
X1397Y122301
X2540Y129667
X2159Y125730
X3810Y119761
X4826Y120142
X5842Y120142
X2286Y120015
X5588Y126111
X6985Y126111
X6604Y121615
X1651Y130302
X4826Y126162
X5334Y121158
X4318Y121158
X5080Y130175
X6121Y125095
X6223Y122936
X5842Y129159
X5842Y127127
X3048Y125903
X11430Y121158
X11938Y123698
X9525Y122301
X10668Y129667
X10287Y125730
X11938Y119761
X12954Y120142
X13970Y120142
X10414Y120015
X13716Y126111
X15113Y126111
X14732Y121615
X9779Y130302
X12954Y126162
X13462Y121158
X12446Y121158
X13208Y130175
X14249Y125095
X14351Y122936
X13970Y129159
X13970Y127127
X11176Y125903
X19558Y121158
X20066Y123698
X17653Y122301
X18796Y129667
X18415Y125730
X20066Y119761
X21082Y120142
X22098Y120142
X18542Y120015
X21844Y126111
X23241Y126111
X22860Y121615
X17907Y130302
X21082Y126162
X21590Y121158
X20574Y121158
X21336Y130175
X22377Y125095
X22479Y122936
X22098Y129159
X22098Y127127
X19304Y125903
X27686Y121158
X28194Y123698
X25781Y122301
X26924Y129667
X26543Y125730
X28194Y119761
X29210Y120142
X30226Y120142
X26670Y120015
X29972Y126111
X31369Y126111
X30988Y121615
X26035Y130302
X29210Y126162
X29718Y121158
X28702Y121158
X29464Y130175
X30505Y125095
X30607Y122936
X30226Y129159
X30226Y127127
X27432Y125903
X35814Y121158
X36322Y123698
X33909Y122301
X35052Y129667
X34671Y125730
X36322Y119761
X37338Y120142
X38354Y120142
X34798Y120015
X38100Y126111
X39497Y126111
X39116Y121615
X34163Y130302
X37338Y126162
X37846Y121158
X36830Y121158
X37592Y130175
X38633Y125095
X38735Y122936
X38354Y129159
X38354Y127127
X35560Y125903
X43942Y121158
X44450Y123698
X42037Y122301
X43180Y129667
X42799Y125730
X44450Y119761
X45466Y120142
X46482Y120142
X42926Y120015
X46228Y126111
X47625Y126111
X47244Y121615
X42291Y130302
X45466Y126162
X45974Y121158
X44958Y121158
X45720Y130175
X46761Y125095
X46863Y122936
X46482Y129159
X46482Y127127
X43688Y125903
X52070Y121158
X52578Y123698
X50165Y122301
X51308Y129667
X50927Y125730
X52578Y119761
X53594Y120142
X54610Y120142
X51054Y120015
X54356Y126111
X55753Y126111
X3302Y3810
X50419Y130302
X53594Y126162
X54102Y121158
X53086Y121158
X53848Y130175
X54889Y125095
X54991Y122936
X54610Y129159
X54610Y127127
X51816Y125903
X60198Y121158
X60706Y123698
X58293Y122301
X59436Y129667
X59055Y125730
X60706Y119761
X61722Y120142
X62738Y120142
X59182Y120015
X62484Y126111
X63881Y126111
X63500Y121615
X58547Y130302
X61722Y126162
X62230Y121158
X61214Y121158
X61976Y130175
X63017Y125095
X63119Y122936
X62738Y129159
X62738Y127127
X59944Y125903
X3302Y140716
X3810Y143256
X1397Y141859
X2540Y149225
X2159Y145288
X3810Y139319
X4826Y139700
X5842Y139700
X2286Y139573
X5588Y145669
X6985Y145669
X6604Y141173
X1651Y149860
X4826Y145720
X5334Y140716
X4318Y140716
X5080Y149733
X6121Y144653
X6223Y142494
X5842Y148717
X5842Y146685
X3048Y145461
X11430Y140716
X11938Y143256
X9525Y141859
X10668Y149225
X10287Y145288
X11938Y139319
X12954Y139700
X13970Y139700
X10414Y139573
X13716Y145669
X15113Y145669
X14732Y141173
X9779Y149860
X12954Y145720
X13462Y140716
X12446Y140716
X13208Y149733
X14249Y144653
X14351Y142494
X13970Y148717
X13970Y146685
X11176Y145461
X19558Y140716
X20066Y143256
X17653Y141859
X18796Y149225
X18415Y145288
X20066Y139319
X21082Y139700
X22098Y139700
X18542Y139573
X21844Y145669
X23241Y145669
X22860Y141173
X17907Y149860
X21082Y145720
X21590Y140716
X20574Y140716
X21336Y149733
X22377Y144653
X22479Y142494
X22098Y148717
X22098Y146685
X19304Y145461
X27686Y140716
X28194Y143256
X25781Y141859
X26924Y149225
X26543Y145288
X28194Y139319
X29210Y139700
X30226Y139700
X26670Y139573
X29972Y145669
X31369Y145669
X30988Y141173
X26035Y149860
X29210Y145720
X29718Y140716
X28702Y140716
X29464Y149733
X30505Y144653
X30607Y142494
X30226Y148717
X30226Y146685
X27432Y145461
X35814Y140716
X36322Y143256
X33909Y141859
X35052Y149225
X34671Y145288
X36322Y139319
X37338Y139700
X38354Y139700
X34798Y139573
X38100Y145669
X39497Y145669
X39116Y141173
X34163Y149860
X37338Y145720
X37846Y140716
X36830Y140716
X37592Y149733
X38633Y144653
X38735Y142494
X38354Y148717
X38354Y146685
X35560Y145461
X43942Y140716
X44450Y143256
X42037Y141859
X43180Y149225
X42799Y145288
X44450Y139319
X45466Y139700
X46482Y139700
X42926Y139573
X46228Y145669
X47625Y145669
X47244Y141173
X42291Y149860
X45466Y145720
X45974Y140716
X44958Y140716
X45720Y149733
X46761Y144653
X46863Y142494
X46482Y148717
X46482Y146685
X43688Y145461
X52070Y140716
X52578Y143256
X50165Y141859
X51308Y149225
X50927Y145288
X52578Y139319
X53594Y139700
X54610Y139700
X51054Y139573
X54356Y145669
X55753Y145669
X55372Y141173
X50419Y149860
X53594Y145720
X54102Y140716
X53086Y140716
X53848Y149733
X54889Y144653
X54991Y142494
X54610Y148717
X54610Y146685
X51816Y145461
X60198Y140716
X60706Y143256
X58293Y141859
X59436Y149225
X59055Y145288
X60706Y139319
X61722Y139700
X62738Y139700
X59182Y139573
X62484Y145669
X63881Y145669
X63500Y141173
X58547Y149860
X55372Y121615
X62230Y140716
X61214Y140716
X61976Y149733
X63017Y144653
X63119Y142494
X62738Y148717
X62738Y146685
X59944Y145461
X3810Y6350
X1397Y4953
X2540Y12319
X2159Y8382
X3810Y2413
X4826Y2794
X5842Y2794
X2286Y2667
X5588Y8763
X6985Y8763
X6604Y4267
X1651Y12954
X4826Y8814
X5334Y3810
X4318Y3810
X5080Y12827
X6121Y7747
X6223Y5588
X5842Y11811
X5842Y9779
X3048Y8555
X11430Y3810
X11938Y6350
X9525Y4953
X10668Y12319
X10287Y8382
X11938Y2413
X12954Y2794
X13970Y2794
X10414Y2667
X13716Y8763
X15113Y8763
X14732Y4267
X9779Y12954
X12954Y8814
X13462Y3810
X12446Y3810
X13208Y12827
X14249Y7747
X14351Y5588
X13970Y11811
X13970Y9779
X11176Y8555
X19558Y3810
X20066Y6350
X17653Y4953
X18796Y12319
X18415Y8382
X20066Y2413
X21082Y2794
X22098Y2794
X18542Y2667
X21844Y8763
X23241Y8763
X22860Y4267
X17907Y12954
X21082Y8814
X21590Y3810
X20574Y3810
X21336Y12827
X22377Y7747
X22479Y5588
X22098Y11811
X22098Y9779
X19304Y8555
X27686Y3810
X28194Y6350
X25781Y4953
X26924Y12319
X26543Y8382
X28194Y2413
X29210Y2794
X30226Y2794
X26670Y2667
X29972Y8763
X31369Y8763
X30988Y4267
X26035Y12954
X29210Y8814
X29718Y3810
X28702Y3810
X29464Y12827
X30505Y7747
X30607Y5588
X30226Y11811
X30226Y9779
X27432Y8555
X35814Y3810
X36322Y6350
X33909Y4953
X35052Y12319
X34671Y8382
X36322Y2413
X37338Y2794
X38354Y2794
X34798Y2667
X38100Y8763
X39497Y8763
X39116Y4267
X34163Y12954
X37338Y8814
X37846Y3810
X36830Y3810
X37592Y12827
X38633Y7747
X38735Y5588
X38354Y11811
X38354Y9779
X35560Y8555
X43942Y3810
X44450Y6350
X42037Y4953
X43180Y12319
X42799Y8382
X44450Y2413
X45466Y2794
X46482Y2794
X42926Y2667
X46228Y8763
X47625Y8763
X47244Y4267
X42291Y12954
X45466Y8814
X45974Y3810
X44958Y3810
X45720Y12827
X46761Y7747
X46863Y5588
X46482Y11811
X46482Y9779
X43688Y8555
X52070Y3810
X52578Y6350
X50165Y4953
X51308Y12319
X50927Y8382
X52578Y2413
X53594Y2794
X54610Y2794
X51054Y2667
X54356Y8763
X55753Y8763
X55372Y4267
X50419Y12954
X53594Y8814
X54102Y3810
X53086Y3810
X53848Y12827
X54889Y7747
X54991Y5588
X54610Y11811
X54610Y9779
X51816Y8555
X60198Y3810
X60706Y6350
X58293Y4953
X59436Y12319
X59055Y8382
X60706Y2413
X61722Y2794
X62738Y2794
X59182Y2667
X62484Y8763
X63881Y8763
X63500Y4267
X58547Y12954
X61722Y8814
X62230Y3810
X61214Y3810
X61976Y12827
X63017Y7747
X63119Y5588
X62738Y11811
X62738Y9779
X59944Y8555
X3302Y23368
X3810Y25908
X1397Y24511
X2540Y31877
X2159Y27940
X3810Y21971
X4826Y22352
X5842Y22352
X2286Y22225
X5588Y28321
X6985Y28321
X6604Y23825
X1651Y32512
X4826Y28372
X5334Y23368
X4318Y23368
X61722Y145720
M30