M48
;GenerationSoftware,Autodesk,EAGLE,9.6.2*%
;CreationDate,2023-05-01T19:44:34Z*%
FMAT,2
ICI,OFF
METRIC,TZ,000.000
T3C0.305
T2C1.016
T1C3.302
%
G90
M71
T1
X152400Y28448
X132080Y80264
X2540Y22860
X22860Y22860
X22860Y2540
X2540Y2540
X28448Y22860
X48768Y22860
X48768Y2540
X28448Y2540
X54356Y22860
X74676Y22860
X74676Y2540
X54356Y2540
X80264Y22860
X100584Y22860
X100584Y2540
X80264Y2540
X106172Y22860
X126492Y22860
X126492Y2540
X106172Y2540
X132080Y22860
X152400Y22860
X152400Y2540
X132080Y2540
X2540Y48768
X22860Y48768
X22860Y28448
X2540Y28448
X28448Y48768
X48768Y48768
X48768Y28448
X28448Y28448
X54356Y48768
X74676Y48768
X74676Y28448
X54356Y28448
X80264Y48768
X100584Y48768
X100584Y28448
X80264Y28448
X106172Y48768
X126492Y48768
X126492Y28448
X106172Y28448
X132080Y48768
X152400Y48768
X152400Y80264
X132080Y28448
X2540Y74676
X22860Y74676
X22860Y54356
X2540Y54356
X28448Y74676
X48768Y74676
X48768Y54356
X28448Y54356
X54356Y74676
X74676Y74676
X74676Y54356
X54356Y54356
X80264Y74676
X100584Y74676
X100584Y54356
X80264Y54356
X106172Y74676
X126492Y74676
X126492Y54356
X106172Y54356
X132080Y74676
X152400Y74676
X152400Y54356
X132080Y54356
X2540Y100584
X22860Y100584
X22860Y80264
X2540Y80264
X28448Y100584
X48768Y100584
X48768Y80264
X28448Y80264
X54356Y100584
X74676Y100584
X74676Y80264
X54356Y80264
X80264Y100584
X100584Y100584
X100584Y80264
X80264Y80264
X106172Y100584
X126492Y100584
X126492Y80264
X106172Y80264
X132080Y100584
X152400Y100584
T2
X39878Y50038
X148590Y78994
X19050Y24130
X16510Y24130
X13970Y24130
X11430Y24130
X8890Y24130
X6350Y24130
X6350Y1270
X8890Y1270
X11430Y1270
X13970Y1270
X16510Y1270
X19050Y1270
X44958Y24130
X42418Y24130
X39878Y24130
X37338Y24130
X34798Y24130
X32258Y24130
X32258Y1270
X34798Y1270
X37338Y1270
X39878Y1270
X42418Y1270
X44958Y1270
X70866Y24130
X68326Y24130
X65786Y24130
X63246Y24130
X60706Y24130
X58166Y24130
X58166Y1270
X60706Y1270
X63246Y1270
X65786Y1270
X68326Y1270
X70866Y1270
X96774Y24130
X94234Y24130
X91694Y24130
X89154Y24130
X86614Y24130
X84074Y24130
X84074Y1270
X86614Y1270
X89154Y1270
X91694Y1270
X94234Y1270
X96774Y1270
X122682Y24130
X120142Y24130
X117602Y24130
X115062Y24130
X112522Y24130
X109982Y24130
X109982Y1270
X112522Y1270
X115062Y1270
X117602Y1270
X120142Y1270
X122682Y1270
X148590Y24130
X146050Y24130
X143510Y24130
X140970Y24130
X138430Y24130
X135890Y24130
X135890Y1270
X138430Y1270
X140970Y1270
X143510Y1270
X146050Y1270
X148590Y1270
X19050Y50038
X16510Y50038
X13970Y50038
X11430Y50038
X8890Y50038
X6350Y50038
X6350Y27178
X8890Y27178
X11430Y27178
X13970Y27178
X16510Y27178
X19050Y27178
X44958Y50038
X42418Y50038
X37338Y50038
X34798Y50038
X32258Y50038
X32258Y27178
X34798Y27178
X37338Y27178
X39878Y27178
X42418Y27178
X44958Y27178
X70866Y50038
X68326Y50038
X65786Y50038
X63246Y50038
X60706Y50038
X58166Y50038
X58166Y27178
X60706Y27178
X63246Y27178
X65786Y27178
X68326Y27178
X70866Y27178
X96774Y50038
X94234Y50038
X91694Y50038
X89154Y50038
X86614Y50038
X84074Y50038
X84074Y27178
X86614Y27178
X89154Y27178
X91694Y27178
X94234Y27178
X96774Y27178
X122682Y50038
X120142Y50038
X117602Y50038
X115062Y50038
X112522Y50038
X109982Y50038
X109982Y27178
X112522Y27178
X115062Y27178
X117602Y27178
X120142Y27178
X122682Y27178
X148590Y50038
X146050Y50038
X143510Y50038
X140970Y50038
X138430Y50038
X135890Y50038
X135890Y27178
X138430Y27178
X140970Y27178
X143510Y27178
X146050Y27178
X148590Y27178
X19050Y75946
X16510Y75946
X13970Y75946
X11430Y75946
X8890Y75946
X6350Y75946
X6350Y53086
X8890Y53086
X11430Y53086
X13970Y53086
X16510Y53086
X19050Y53086
X44958Y75946
X42418Y75946
X39878Y75946
X37338Y75946
X34798Y75946
X32258Y75946
X32258Y53086
X34798Y53086
X37338Y53086
X39878Y53086
X42418Y53086
X44958Y53086
X70866Y75946
X68326Y75946
X65786Y75946
X63246Y75946
X60706Y75946
X58166Y75946
X58166Y53086
X60706Y53086
X63246Y53086
X65786Y53086
X68326Y53086
X70866Y53086
X96774Y75946
X94234Y75946
X91694Y75946
X89154Y75946
X86614Y75946
X84074Y75946
X84074Y53086
X86614Y53086
X89154Y53086
X91694Y53086
X94234Y53086
X96774Y53086
X122682Y75946
X120142Y75946
X117602Y75946
X115062Y75946
X112522Y75946
X109982Y75946
X109982Y53086
X112522Y53086
X115062Y53086
X117602Y53086
X120142Y53086
X122682Y53086
X148590Y75946
X146050Y75946
X143510Y75946
X140970Y75946
X138430Y75946
X135890Y75946
X135890Y53086
X138430Y53086
X140970Y53086
X143510Y53086
X146050Y53086
X148590Y53086
X19050Y101854
X16510Y101854
X13970Y101854
X11430Y101854
X8890Y101854
X6350Y101854
X6350Y78994
X8890Y78994
X11430Y78994
X13970Y78994
X16510Y78994
X19050Y78994
X44958Y101854
X42418Y101854
X39878Y101854
X37338Y101854
X34798Y101854
X32258Y101854
X32258Y78994
X34798Y78994
X37338Y78994
X39878Y78994
X42418Y78994
X44958Y78994
X70866Y101854
X68326Y101854
X65786Y101854
X63246Y101854
X60706Y101854
X58166Y101854
X58166Y78994
X60706Y78994
X63246Y78994
X65786Y78994
X68326Y78994
X70866Y78994
X96774Y101854
X94234Y101854
X91694Y101854
X89154Y101854
X86614Y101854
X84074Y101854
X84074Y78994
X86614Y78994
X89154Y78994
X91694Y78994
X94234Y78994
X96774Y78994
X122682Y101854
X120142Y101854
X117602Y101854
X115062Y101854
X112522Y101854
X109982Y101854
X109982Y78994
X112522Y78994
X115062Y78994
X117602Y78994
X120142Y78994
X122682Y78994
X148590Y101854
X146050Y101854
X143510Y101854
X140970Y101854
X138430Y101854
X135890Y101854
X135890Y78994
X138430Y78994
X140970Y78994
X143510Y78994
X146050Y78994
T3
X44958Y40513
X38227Y29083
X48641Y39116
X42418Y35560
X47752Y39624
X38608Y36703
X41148Y30353
X37338Y36068
X39878Y36068
X47752Y38608
X43688Y39243
X37465Y36957
X44069Y36957
X40513Y40259
X35814Y38735
X41148Y38608
X41148Y39624
X36449Y38100
X36068Y37338
X39878Y31623
X37338Y31623
X36068Y34163
X42418Y31623
X44958Y31623
X67056Y35433
X58674Y39116
X52451Y46863
X56261Y50673
X52451Y32893
X61976Y32893
X60706Y36703
X58166Y40513
X70866Y37084
X62230Y40132
X72771Y26543
X76581Y30353
X76581Y44323
X72771Y50673
X67056Y29083
X69596Y29083
X64897Y30988
X72136Y29718
X61976Y44323
X65786Y44323
X68326Y43688
X59436Y43688
X64516Y48768
X73406Y35433
X59817Y29464
X59563Y35052
X67056Y34417
X70866Y40513
X64135Y29083
X74549Y39116
X68326Y35560
X73660Y39624
X64516Y36703
X67056Y30353
X63246Y36068
X65786Y36068
X73660Y38608
X69596Y39243
X63373Y36957
X69977Y36957
X66421Y40259
X61722Y38735
X67056Y38608
X67056Y39624
X62357Y38100
X61976Y37338
X65786Y31623
X63246Y31623
X61976Y34163
X68326Y31623
X70866Y31623
X92964Y35433
X84582Y39116
X78359Y46863
X82169Y50673
X78359Y32893
X87884Y32893
X86614Y36703
X84074Y40513
X96774Y37084
X88138Y40132
X98679Y26543
X102489Y30353
X102489Y44323
X98679Y50673
X92964Y29083
X95504Y29083
X90805Y30988
X98044Y29718
X87884Y44323
X91694Y44323
X94234Y43688
X85344Y43688
X90424Y48768
X99314Y35433
X85725Y29464
X85471Y35052
X92964Y34417
X96774Y40513
X90043Y29083
X100457Y39116
X94234Y35560
X99568Y39624
X90424Y36703
X92964Y30353
X89154Y36068
X91694Y36068
X99568Y38608
X95504Y39243
X89281Y36957
X95885Y36957
X92329Y40259
X87630Y38735
X92964Y38608
X92964Y39624
X88265Y38100
X87884Y37338
X91694Y31623
X89154Y31623
X87884Y34163
X94234Y31623
X96774Y31623
X118872Y35433
X110490Y39116
X104267Y46863
X108077Y50673
X104267Y32893
X113792Y32893
X112522Y36703
X109982Y40513
X122682Y37084
X114046Y40132
X124587Y26543
X128397Y30353
X128397Y44323
X124587Y50673
X118872Y29083
X121412Y29083
X116713Y30988
X123952Y29718
X113792Y44323
X117602Y44323
X120142Y43688
X111252Y43688
X116332Y48768
X125222Y35433
X111633Y29464
X111379Y35052
X118872Y34417
X122682Y40513
X115951Y29083
X126365Y39116
X120142Y35560
X125476Y39624
X116332Y36703
X118872Y30353
X115062Y36068
X117602Y36068
X125476Y38608
X121412Y39243
X115189Y36957
X121793Y36957
X118237Y40259
X113538Y38735
X118872Y38608
X118872Y39624
X114173Y38100
X113792Y37338
X117602Y31623
X115062Y31623
X113792Y34163
X120142Y31623
X122682Y31623
X144780Y35433
X136398Y39116
X130175Y46863
X133985Y50673
X130175Y32893
X139700Y32893
X138430Y36703
X135890Y40513
X148590Y37084
X139954Y40132
X150495Y26543
X154305Y30353
X154305Y44323
X150495Y50673
X144780Y29083
X147320Y29083
X142621Y30988
X149860Y29718
X139700Y44323
X143510Y44323
X146050Y43688
X137160Y43688
X142240Y48768
X151130Y35433
X137541Y29464
X137287Y35052
X144780Y34417
X148590Y40513
X141859Y29083
X152273Y39116
X146050Y35560
X151384Y39624
X142240Y36703
X144780Y30353
X140970Y36068
X143510Y36068
X151384Y38608
X147320Y39243
X141097Y36957
X147701Y36957
X144145Y40259
X139446Y38735
X144780Y38608
X144780Y39624
X140081Y38100
X139700Y37338
X143510Y31623
X140970Y31623
X139700Y34163
X146050Y31623
X148590Y31623
X15240Y61341
X6858Y65024
X635Y72771
X4445Y76581
X635Y58801
X10160Y58801
X8890Y62611
X6350Y66421
X19050Y62992
X10414Y66040
X20955Y52451
X24765Y56261
X24765Y70231
X20955Y76581
X15240Y54991
X17780Y54991
X13081Y56896
X20320Y55626
X10160Y70231
X13970Y70231
X16510Y69596
X7620Y69596
X12700Y74676
X21590Y61341
X8001Y55372
X7747Y60960
X15240Y60325
X19050Y66421
X12319Y54991
X22733Y65024
X16510Y61468
X21844Y65532
X12700Y62611
X15240Y56261
X11430Y61976
X13970Y61976
X21844Y64516
X17780Y65151
X11557Y62865
X18161Y62865
X14605Y66167
X9906Y64643
X15240Y64516
X15240Y65532
X10541Y64008
X10160Y63246
X13970Y57531
X11430Y57531
X10160Y60071
X16510Y57531
X19050Y57531
X41148Y61341
X32766Y65024
X26543Y72771
X30353Y76581
X26543Y58801
X36068Y58801
X34798Y62611
X32258Y66421
X44958Y62992
X36322Y66040
X46863Y52451
X50673Y56261
X50673Y70231
X46863Y76581
X41148Y54991
X43688Y54991
X38989Y56896
X46228Y55626
X36068Y70231
X39878Y70231
X42418Y69596
X33528Y69596
X38608Y74676
X47498Y61341
X33909Y55372
X33655Y60960
X41148Y60325
X44958Y66421
X38227Y54991
X48641Y65024
X42418Y61468
X47752Y65532
X38608Y62611
X41148Y56261
X37338Y61976
X39878Y61976
X47752Y64516
X43688Y65151
X37465Y62865
X44069Y62865
X40513Y66167
X35814Y64643
X41148Y64516
X41148Y65532
X36449Y64008
X36068Y63246
X39878Y57531
X37338Y57531
X36068Y60071
X42418Y57531
X44958Y57531
X67056Y61341
X58674Y65024
X52451Y72771
X56261Y76581
X52451Y58801
X61976Y58801
X60706Y62611
X58166Y66421
X70866Y62992
X62230Y66040
X72771Y52451
X76581Y56261
X76581Y70231
X72771Y76581
X67056Y54991
X69596Y54991
X64897Y56896
X72136Y55626
X61976Y70231
X65786Y70231
X68326Y69596
X59436Y69596
X64516Y74676
X73406Y61341
X59817Y55372
X59563Y60960
X67056Y60325
X70866Y66421
X64135Y54991
X74549Y65024
X68326Y61468
X73660Y65532
X64516Y62611
X67056Y56261
X63246Y61976
X65786Y61976
X73660Y64516
X69596Y65151
X63373Y62865
X69977Y62865
X66421Y66167
X61722Y64643
X67056Y64516
X67056Y65532
X62357Y64008
X61976Y63246
X65786Y57531
X63246Y57531
X61976Y60071
X68326Y57531
X70866Y57531
X92964Y61341
X84582Y65024
X78359Y72771
X82169Y76581
X78359Y58801
X87884Y58801
X86614Y62611
X84074Y66421
X96774Y62992
X88138Y66040
X98679Y52451
X102489Y56261
X102489Y70231
X98679Y76581
X92964Y54991
X95504Y54991
X90805Y56896
X98044Y55626
X87884Y70231
X91694Y70231
X94234Y69596
X85344Y69596
X90424Y74676
X99314Y61341
X85725Y55372
X85471Y60960
X92964Y60325
X96774Y66421
X90043Y54991
X100457Y65024
X94234Y61468
X99568Y65532
X90424Y62611
X92964Y56261
X89154Y61976
X91694Y61976
X99568Y64516
X95504Y65151
X89281Y62865
X87884Y8255
X92329Y66167
X87630Y64643
X92964Y64516
X92964Y65532
X88265Y64008
X87884Y63246
X91694Y57531
X89154Y57531
X87884Y60071
X94234Y57531
X96774Y57531
X118872Y61341
X110490Y65024
X104267Y72771
X108077Y76581
X104267Y58801
X113792Y58801
X112522Y62611
X109982Y66421
X122682Y62992
X114046Y66040
X124587Y52451
X128397Y56261
X128397Y70231
X124587Y76581
X118872Y54991
X121412Y54991
X116713Y56896
X123952Y55626
X113792Y70231
X117602Y70231
X120142Y69596
X111252Y69596
X116332Y74676
X125222Y61341
X111633Y55372
X111379Y60960
X118872Y60325
X122682Y66421
X115951Y54991
X126365Y65024
X120142Y61468
X125476Y65532
X116332Y62611
X118872Y56261
X115062Y61976
X117602Y61976
X125476Y64516
X121412Y65151
X115189Y62865
X121793Y62865
X118237Y66167
X113538Y64643
X118872Y64516
X118872Y65532
X114173Y64008
X113792Y63246
X117602Y57531
X115062Y57531
X113792Y60071
X120142Y57531
X122682Y57531
X144780Y61341
X136398Y65024
X130175Y72771
X133985Y76581
X130175Y58801
X139700Y58801
X138430Y62611
X135890Y66421
X148590Y62992
X139954Y66040
X150495Y52451
X154305Y56261
X154305Y70231
X150495Y76581
X144780Y54991
X147320Y54991
X142621Y56896
X149860Y55626
X139700Y70231
X143510Y70231
X146050Y69596
X137160Y69596
X142240Y74676
X151130Y61341
X137541Y55372
X137287Y60960
X144780Y60325
X148590Y66421
X141859Y54991
X152273Y65024
X146050Y61468
X151384Y65532
X142240Y62611
X144780Y56261
X140970Y61976
X143510Y61976
X151384Y64516
X147320Y65151
X141097Y62865
X147701Y62865
X144145Y66167
X139446Y64643
X144780Y64516
X144780Y65532
X140081Y64008
X139700Y63246
X143510Y57531
X140970Y57531
X139700Y60071
X146050Y57531
X148590Y57531
X15240Y87249
X6858Y90932
X635Y98679
X4445Y102489
X635Y84709
X10160Y84709
X8890Y88519
X6350Y92329
X19050Y88900
X10414Y91948
X20955Y78359
X24765Y82169
X24765Y96139
X20955Y102489
X15240Y80899
X17780Y80899
X13081Y82804
X20320Y81534
X10160Y96139
X13970Y96139
X16510Y95504
X7620Y95504
X12700Y100584
X21590Y87249
X8001Y81280
X7747Y86868
X15240Y86233
X19050Y92329
X12319Y80899
X22733Y90932
X16510Y87376
X21844Y91440
X12700Y88519
X15240Y82169
X11430Y87884
X13970Y87884
X21844Y90424
X17780Y91059
X11557Y88773
X18161Y88773
X14605Y92075
X9906Y90551
X15240Y90424
X15240Y91440
X10541Y89916
X10160Y89154
X13970Y83439
X11430Y83439
X10160Y85979
X16510Y83439
X19050Y83439
X41148Y87249
X32766Y90932
X26543Y98679
X30353Y102489
X26543Y84709
X36068Y84709
X34798Y88519
X32258Y92329
X44958Y88900
X36322Y91948
X46863Y78359
X50673Y82169
X50673Y96139
X46863Y102489
X41148Y80899
X43688Y80899
X38989Y82804
X46228Y81534
X36068Y96139
X39878Y96139
X42418Y95504
X33528Y95504
X38608Y100584
X47498Y87249
X33909Y81280
X33655Y86868
X41148Y86233
X44958Y92329
X38227Y80899
X48641Y90932
X42418Y87376
X47752Y91440
X38608Y88519
X41148Y82169
X37338Y87884
X39878Y87884
X47752Y90424
X43688Y91059
X37465Y88773
X44069Y88773
X40513Y92075
X35814Y90551
X41148Y90424
X41148Y91440
X36449Y89916
X36068Y89154
X39878Y83439
X37338Y83439
X36068Y85979
X42418Y83439
X44958Y83439
X67056Y87249
X58674Y90932
X52451Y98679
X56261Y102489
X52451Y84709
X61976Y84709
X60706Y88519
X58166Y92329
X70866Y88900
X62230Y91948
X72771Y78359
X76581Y82169
X76581Y96139
X72771Y102489
X67056Y80899
X69596Y80899
X64897Y82804
X72136Y81534
X61976Y96139
X65786Y96139
X68326Y95504
X59436Y95504
X64516Y100584
X73406Y87249
X59817Y81280
X59563Y86868
X67056Y86233
X70866Y92329
X64135Y80899
X74549Y90932
X68326Y87376
X73660Y91440
X64516Y88519
X67056Y82169
X63246Y87884
X65786Y87884
X73660Y90424
X69596Y91059
X63373Y88773
X69977Y88773
X66421Y92075
X61722Y90551
X67056Y90424
X67056Y91440
X62357Y89916
X61976Y89154
X65786Y83439
X63246Y83439
X61976Y85979
X68326Y83439
X70866Y83439
X92964Y87249
X84582Y90932
X78359Y98679
X82169Y102489
X78359Y84709
X87884Y84709
X86614Y88519
X84074Y92329
X96774Y88900
X88138Y91948
X98679Y78359
X102489Y82169
X102489Y96139
X98679Y102489
X92964Y80899
X95504Y80899
X90805Y82804
X98044Y81534
X87884Y96139
X91694Y96139
X94234Y95504
X85344Y95504
X90424Y100584
X99314Y87249
X85725Y81280
X85471Y86868
X92964Y86233
X96774Y92329
X90043Y80899
X100457Y90932
X94234Y87376
X99568Y91440
X90424Y88519
X92964Y82169
X89154Y87884
X91694Y87884
X99568Y90424
X95504Y91059
X89281Y88773
X95885Y88773
X92329Y92075
X87630Y90551
X92964Y90424
X92964Y91440
X88265Y89916
X87884Y89154
X91694Y83439
X89154Y83439
X87884Y85979
X94234Y83439
X96774Y83439
X118872Y87249
X110490Y90932
X104267Y98679
X108077Y102489
X104267Y84709
X113792Y84709
X112522Y88519
X109982Y92329
X122682Y88900
X114046Y91948
X124587Y78359
X128397Y82169
X128397Y96139
X124587Y102489
X118872Y80899
X121412Y80899
X116713Y82804
X123952Y81534
X113792Y96139
X117602Y96139
X120142Y95504
X111252Y95504
X116332Y100584
X125222Y87249
X111633Y81280
X111379Y86868
X118872Y86233
X122682Y92329
X115951Y80899
X126365Y90932
X120142Y87376
X125476Y91440
X116332Y88519
X118872Y82169
X115062Y87884
X117602Y87884
X125476Y90424
X121412Y91059
X115189Y88773
X121793Y88773
X118237Y92075
X113538Y90551
X118872Y90424
X118872Y91440
X114173Y89916
X113792Y89154
X117602Y83439
X115062Y83439
X113792Y85979
X120142Y83439
X122682Y83439
X144780Y87249
X136398Y90932
X130175Y98679
X133985Y102489
X130175Y84709
X139700Y84709
X138430Y88519
X135890Y92329
X148590Y88900
X139954Y91948
X150495Y78359
X154305Y82169
X154305Y96139
X150495Y102489
X144780Y80899
X147320Y80899
X142621Y82804
X149860Y81534
X139700Y96139
X143510Y96139
X146050Y95504
X137160Y95504
X142240Y100584
X151130Y87249
X137541Y81280
X137287Y86868
X144780Y86233
X148590Y92329
X141859Y80899
X152273Y90932
X146050Y87376
X151384Y91440
X15240Y9525
X144780Y82169
X140970Y87884
X143510Y87884
X151384Y90424
X147320Y91059
X141097Y88773
X147701Y88773
X144145Y92075
X139446Y90551
X144780Y90424
X144780Y91440
X140081Y89916
X139700Y89154
X143510Y83439
X140970Y83439
X139700Y85979
X146050Y83439
X148590Y83439
X6858Y13208
X635Y20955
X4445Y24765
X635Y6985
X10160Y6985
X8890Y10795
X6350Y14605
X19050Y11176
X10414Y14224
X20955Y635
X24765Y4445
X24765Y18415
X20955Y24765
X15240Y3175
X17780Y3175
X13081Y5080
X20320Y3810
X10160Y18415
X13970Y18415
X16510Y17780
X7620Y17780
X12700Y22860
X21590Y9525
X8001Y3556
X7747Y9144
X15240Y8509
X19050Y14605
X12319Y3175
X22733Y13208
X16510Y9652
X21844Y13716
X12700Y10795
X15240Y4445
X11430Y10160
X13970Y10160
X21844Y12700
X17780Y13335
X11557Y11049
X18161Y11049
X14605Y14351
X9906Y12827
X15240Y12700
X15240Y13716
X10541Y12192
X10160Y11430
X13970Y5715
X11430Y5715
X10160Y8255
X16510Y5715
X19050Y5715
X41148Y9525
X32766Y13208
X26543Y20955
X30353Y24765
X26543Y6985
X36068Y6985
X34798Y10795
X32258Y14605
X44958Y11176
X36322Y14224
X46863Y635
X50673Y4445
X50673Y18415
X46863Y24765
X41148Y3175
X43688Y3175
X38989Y5080
X46228Y3810
X36068Y18415
X39878Y18415
X42418Y17780
X33528Y17780
X38608Y22860
X47498Y9525
X33909Y3556
X33655Y9144
X41148Y8509
X44958Y14605
X38227Y3175
X48641Y13208
X42418Y9652
X47752Y13716
X38608Y10795
X41148Y4445
X37338Y10160
X39878Y10160
X47752Y12700
X43688Y13335
X37465Y11049
X44069Y11049
X40513Y14351
X35814Y12827
X41148Y12700
X41148Y13716
X36449Y12192
X36068Y11430
X39878Y5715
X37338Y5715
X36068Y8255
X42418Y5715
X44958Y5715
X67056Y9525
X58674Y13208
X52451Y20955
X56261Y24765
X52451Y6985
X61976Y6985
X60706Y10795
X58166Y14605
X70866Y11176
X62230Y14224
X72771Y635
X76581Y4445
X76581Y18415
X72771Y24765
X67056Y3175
X69596Y3175
X64897Y5080
X72136Y3810
X61976Y18415
X65786Y18415
X68326Y17780
X59436Y17780
X64516Y22860
X73406Y9525
X59817Y3556
X59563Y9144
X67056Y8509
X70866Y14605
X64135Y3175
X74549Y13208
X68326Y9652
X73660Y13716
X64516Y10795
X67056Y4445
X63246Y10160
X65786Y10160
X73660Y12700
X69596Y13335
X63373Y11049
X69977Y11049
X66421Y14351
X61722Y12827
X67056Y12700
X67056Y13716
X62357Y12192
X61976Y11430
X65786Y5715
X63246Y5715
X61976Y8255
X68326Y5715
X70866Y5715
X92964Y9525
X84582Y13208
X78359Y20955
X82169Y24765
X78359Y6985
X87884Y6985
X86614Y10795
X84074Y14605
X96774Y11176
X88138Y14224
X98679Y635
X102489Y4445
X102489Y18415
X98679Y24765
X92964Y3175
X95504Y3175
X90805Y5080
X98044Y3810
X87884Y18415
X91694Y18415
X94234Y17780
X85344Y17780
X90424Y22860
X99314Y9525
X85725Y3556
X85471Y9144
X92964Y8509
X96774Y14605
X90043Y3175
X100457Y13208
X95885Y62865
X94234Y9652
X99568Y13716
X90424Y10795
X92964Y4445
X89154Y10160
X91694Y10160
X99568Y12700
X95504Y13335
X89281Y11049
X95885Y11049
X92329Y14351
X87630Y12827
X92964Y12700
X92964Y13716
X88265Y12192
X87884Y11430
X91694Y5715
X89154Y5715
X94234Y5715
X96774Y5715
X118872Y9525
X110490Y13208
X104267Y20955
X108077Y24765
X104267Y6985
X113792Y6985
X112522Y10795
X109982Y14605
X122682Y11176
X114046Y14224
X124587Y635
X128397Y4445
X128397Y18415
X124587Y24765
X118872Y3175
X121412Y3175
X116713Y5080
X123952Y3810
X113792Y18415
X117602Y18415
X120142Y17780
X111252Y17780
X116332Y22860
X125222Y9525
X111633Y3556
X111379Y9144
X118872Y8509
X122682Y14605
X115951Y3175
X126365Y13208
X120142Y9652
X125476Y13716
X116332Y10795
X118872Y4445
X115062Y10160
X117602Y10160
X125476Y12700
X121412Y13335
X115189Y11049
X121793Y11049
X118237Y14351
X113538Y12827
X118872Y12700
X118872Y13716
X114173Y12192
X113792Y11430
X117602Y5715
X115062Y5715
X113792Y8255
X120142Y5715
X122682Y5715
X144780Y9525
X136398Y13208
X130175Y20955
X133985Y24765
X130175Y6985
X139700Y6985
X138430Y10795
X135890Y14605
X148590Y11176
X139954Y14224
X150495Y635
X154305Y4445
X154305Y18415
X150495Y24765
X144780Y3175
X147320Y3175
X142621Y5080
X149860Y3810
X139700Y18415
X143510Y18415
X146050Y17780
X137160Y17780
X142240Y22860
X151130Y9525
X137541Y3556
X137287Y9144
X144780Y8509
X148590Y14605
X141859Y3175
X152273Y13208
X146050Y9652
X151384Y13716
X142240Y10795
X144780Y4445
X140970Y10160
X143510Y10160
X151384Y12700
X147320Y13335
X141097Y11049
X147701Y11049
X144145Y14351
X139446Y12827
X144780Y12700
X144780Y13716
X140081Y12192
X139700Y11430
X143510Y5715
X140970Y5715
X139700Y8255
X146050Y5715
X148590Y5715
X15240Y35433
X6858Y39116
X635Y46863
X4445Y50673
X635Y32893
X10160Y32893
X8890Y36703
X6350Y40513
X19050Y37084
X10414Y40132
X20955Y26543
X24765Y30353
X24765Y44323
X20955Y50673
X15240Y29083
X17780Y29083
X13081Y30988
X20320Y29718
X10160Y44323
X13970Y44323
X16510Y43688
X7620Y43688
X12700Y48768
X21590Y35433
X8001Y29464
X7747Y35052
X15240Y34417
X19050Y40513
X12319Y29083
X22733Y39116
X16510Y35560
X21844Y39624
X12700Y36703
X15240Y30353
X11430Y36068
X13970Y36068
X21844Y38608
X17780Y39243
X11557Y36957
X18161Y36957
X14605Y40259
X9906Y38735
X15240Y38608
X15240Y39624
X10541Y38100
X10160Y37338
X13970Y31623
X11430Y31623
X10160Y34163
X16510Y31623
X19050Y31623
X41148Y35433
X32766Y39116
X26543Y46863
X30353Y50673
X26543Y32893
X36068Y32893
X34798Y36703
X32258Y40513
X44958Y37084
X36322Y40132
X46863Y26543
X50673Y30353
X50673Y44323
X46863Y50673
X41148Y29083
X43688Y29083
X38989Y30988
X46228Y29718
X36068Y44323
X39878Y44323
X42418Y43688
X33528Y43688
X38608Y48768
X47498Y35433
X33909Y29464
X33655Y35052
X41148Y34417
X142240Y88519
M30